<svg xmlns="http://www.w3.org/2000/svg" viewBox="157.59 141.5 185.45 140.95"><g id="flame noodles"><path id="11" d="M 173.946,269.134 C 166.903,263.938 161.031,256.185 159.001,249.402 C 158.303,247.072 157.934,241.895 158.144,237.402 C 158.532,229.107 159.421,226.800 169.631,207.583 C 172.773,201.669 173.320,199.677 173.403,193.841 C 173.456,190.087 173.854,187.012 174.287,187.008 C 175.988,186.992 183.865,196.177 186.035,200.708 C 187.833,204.461 188.338,207.261 188.365,213.625 C 188.399,221.645 188.320,221.906 182.191,233.866 C 178.776,240.530 175.496,248.253 174.901,251.028 C 173.522,257.459 175.061,264.404 179.102,269.982 C 180.703,272.192 181.672,273.993 181.256,273.985 C 180.840,273.977 177.551,271.794 173.946,269.134" stroke="#FDFDFD" fill="#FDFDFD" stroke-width="1"/>
  <path id="11" d="M 251.602,280.431 C 244.690,277.898 237.168,273.879 236.608,272.420 C 235.843,270.427 245.675,270.493 249.713,272.507 C 258.413,276.847 271.315,276.640 281.509,271.996 C 290.718,267.801 299.547,257.617 302.912,247.310 C 303.664,245.006 305.792,241.655 307.640,239.864 C 307.640,239.864 311,236.608 311,236.608 C 311,236.608 310.989,240.054 310.989,240.054 C 310.983,241.949 310.344,245.592 309.568,248.148 C 304.958,263.336 293.622,275.122 279.009,279.919 C 271.465,282.396 257.667,282.654 251.602,280.431" stroke="#FDFDFD" fill="#FDFDFD" stroke-width="1"/>
  <path id="11" d="M 244.777,261.867 C 247.156,258.091 247.717,257.722 253.863,255.899 C 264.416,252.769 275.364,240.986 278.025,229.894 C 279.838,222.338 278.845,211.525 275.709,204.675 C 272.436,197.525 264.373,189.531 257.024,186.147 C 252.362,184 250.017,183.598 242,183.569 C 236.418,183.549 231.629,184.026 230.388,184.728 C 228.592,185.744 227.956,185.582 226.138,183.647 C 224.962,182.395 224,181.105 224,180.780 C 224,179.061 234.159,177 242.631,177 C 251.893,177 253.575,177.380 261.953,181.376 C 278.176,189.113 288.523,209.844 285.073,227.696 C 281.306,247.189 266.798,261.243 247.078,264.503 C 247.078,264.503 242.655,265.234 242.655,265.234 C 242.655,265.234 244.777,261.867 244.777,261.867" stroke="#FDFDFD" fill="#FDFDFD" stroke-width="1"/>
  <path id="11" d="M 274.638,264.854 C 274.638,264.854 270.959,261.820 270.959,261.820 C 270.959,261.820 273.509,259.814 273.509,259.814 C 276.232,257.672 276.508,257.751 282.250,262.326 C 284.608,264.205 284.476,264.703 281.159,266.418 C 278.463,267.812 278.130,267.732 274.638,264.854" stroke="#FDFDFD" fill="#FDFDFD" stroke-width="1"/>
  <path id="11" d="M 221.911,271.865 C 225.379,268.142 227.391,262.704 227.804,255.935 C 228.530,244.039 224.840,236.833 208.118,217.502 C 202.408,210.901 196.010,202.866 193.901,199.646 C 184.092,184.672 182.691,170.648 189.622,156.812 C 191.853,152.358 201.157,142 202.926,142 C 203.383,142 203.338,143.965 202.826,146.367 C 202.143,149.570 202.305,152.504 203.435,157.376 C 206.080,168.781 209.806,174.887 226.309,194.862 C 235.443,205.918 241.406,216.091 243.615,224.388 C 245.407,231.116 245.346,241.289 243.477,247.449 C 241.121,255.216 234.325,264.765 227.662,269.670 C 221.353,274.315 218.678,275.336 221.911,271.865" stroke="#FDFDFD" fill="#FDFDFD" stroke-width="1"/>
  <path id="11" d="M 185.693,268.213 C 183.389,265.667 180.995,259.544 181.028,256.282 C 181.044,254.752 182.170,251.475 183.531,249 C 184.892,246.525 187.176,242.106 188.608,239.179 C 191.113,234.059 191.267,233.936 192.663,235.930 C 195.310,239.709 194.566,247.268 190.919,253.642 C 188.405,258.037 187.629,260.591 187.573,264.674 C 187.533,267.596 187.457,269.991 187.405,269.994 C 187.353,269.997 186.582,269.196 185.693,268.213" stroke="#FDFDFD" fill="#FDFDFD" stroke-width="1"/>
  <path id="11" d="M 304.063,271.161 C 305.403,269.452 307.625,267.781 309,267.446 C 321.478,264.409 331.120,255.273 334.645,243.149 C 338.052,231.428 333.846,215.220 325.596,208.286 C 323.143,206.224 322.109,204.380 321.619,201.187 C 321.619,201.187 320.956,196.874 320.956,196.874 C 320.956,196.874 325.401,199.932 325.401,199.932 C 334.330,206.075 340.186,215.768 342.056,227.500 C 345.605,249.771 328.877,272.296 307.648,273.832 C 307.648,273.832 301.626,274.267 301.626,274.267 C 301.626,274.267 304.063,271.161 304.063,271.161" stroke="#FDFDFD" fill="#FDFDFD" stroke-width="1"/>
  <path id="11" d="M 285,247.450 C 285,245.323 289.297,239.593 295.126,233.946 C 300.195,229.035 302.801,225.510 305.082,220.479 C 307.992,214.061 308.153,213.075 307.836,203.582 C 307.543,194.804 307.116,192.724 304.529,187.500 C 295.239,168.739 272.791,160.614 252.811,168.781 C 249.930,169.959 247.052,170.370 244.133,170.021 C 239.982,169.525 239.858,169.420 241.633,167.867 C 247.027,163.148 259.829,159 269,159 C 300.269,159 322.504,189.628 312.564,219.008 C 308.681,230.486 301.515,239.369 291.508,245.109 C 286.545,247.956 285,248.511 285,247.450" stroke="#FDFDFD" fill="#FDFDFD" stroke-width="1"/>
  <path id="11" d="M 261.653,242.838 C 261.309,241.552 261.017,237.125 261.004,233 C 260.976,224.240 263.867,214.766 268.104,209.734 C 268.104,209.734 270.828,206.500 270.828,206.500 C 270.828,206.500 271.962,209.441 271.962,209.441 C 272.934,211.963 272.711,213.246 270.403,218.441 C 268.354,223.053 267.651,226.381 267.458,232.375 C 267.238,239.224 266.884,240.571 264.742,242.713 C 264.742,242.713 262.279,245.175 262.279,245.175 C 262.279,245.175 261.653,242.838 261.653,242.838" stroke="#FDFDFD" fill="#FDFDFD" stroke-width="1"/>
  <path id="11" d="M 214.843,265.107 C 215.285,258.657 212.511,252.940 204.914,244.643 C 199.030,238.216 195.712,232.670 194.561,227.334 C 193.862,224.094 195.479,216 196.825,216 C 198.250,216 215.513,238.436 218.250,243.846 C 222.306,251.863 221.658,261.797 216.703,267.559 C 216.703,267.559 214.500,270.122 214.500,270.122 C 214.500,270.122 214.843,265.107 214.843,265.107" stroke="#FDFDFD" fill="#FDFDFD" stroke-width="1"/>
  <path id="11" d="M 299.259,214.249 C 298.576,212.693 295.849,208.963 293.199,205.960 C 290.549,202.957 287.193,198.346 285.741,195.714 C 285.741,195.714 283.101,190.929 283.101,190.929 C 283.101,190.929 287.257,193.214 287.257,193.214 C 289.543,194.471 294.021,198.087 297.207,201.250 C 303.271,207.269 303.922,209.156 301.705,214.289 C 301.705,214.289 300.500,217.079 300.500,217.079 C 300.500,217.079 299.259,214.249 299.259,214.249" stroke="#FDFDFD" fill="#FDFDFD" stroke-width="1"/>
</g></svg>